ply
format ascii 1.0
comment Created by Blender 2.78 (sub 0) - www.blender.org, source file: ''
element vertex 480
property float x
property float y
property float z
property float nx
property float ny
property float nz
element face 720
property list uchar uint vertex_indices
end_header
1.099151 -0.769633 0.000000 -0.000000 -0.000000 1.000000
1.158456 -0.811160 0.000000 -0.000000 -0.000000 1.000000
1.147932 -0.751474 0.000000 -0.000000 -0.000000 1.000000
0.805953 1.001589 0.000000 -0.000000 -0.000000 1.000000
0.832208 1.039086 0.000000 -0.000000 -0.000000 1.000000
0.787793 1.050370 0.000000 -0.000000 -0.000000 1.000000
0.838615 0.816353 0.000000 -0.000000 -0.000000 1.000000
0.863781 0.860029 0.000000 -0.000000 -0.000000 1.000000
0.827727 0.878098 0.000000 -0.000000 -0.000000 1.000000
0.871277 0.631117 0.000000 -0.000000 -0.000000 1.000000
0.895353 0.680973 0.000000 -0.000000 -0.000000 1.000000
0.860389 0.692863 0.000000 -0.000000 -0.000000 1.000000
0.903939 0.445882 0.000000 -0.000000 -0.000000 1.000000
0.926925 0.501918 0.000000 -0.000000 -0.000000 1.000000
0.893052 0.507627 0.000000 -0.000000 -0.000000 1.000000
0.936601 0.260646 0.000000 -0.000000 -0.000000 1.000000
0.958497 0.322862 0.000000 -0.000000 -0.000000 1.000000
0.925713 0.322391 0.000000 -0.000000 -0.000000 1.000000
0.958375 0.137155 0.000000 -0.000000 -0.000000 1.000000
1.000594 0.084120 0.000000 -0.000000 -0.000000 1.000000
0.990069 0.143805 0.000000 -0.000000 -0.000000 1.000000
0.991038 -0.048081 0.000000 -0.000000 -0.000000 1.000000
1.032166 -0.094936 0.000000 -0.000000 -0.000000 1.000000
1.021642 -0.035251 0.000000 -0.000000 -0.000000 1.000000
1.023700 -0.233317 0.000000 -0.000000 -0.000000 1.000000
1.063739 -0.273991 0.000000 -0.000000 -0.000000 1.000000
1.053215 -0.214306 0.000000 -0.000000 -0.000000 1.000000
1.056362 -0.418553 0.000000 -0.000000 -0.000000 1.000000
1.095311 -0.453048 0.000000 -0.000000 -0.000000 1.000000
1.084787 -0.393362 0.000000 -0.000000 -0.000000 1.000000
1.089024 -0.603788 0.000000 -0.000000 -0.000000 1.000000
1.126884 -0.632104 0.000000 -0.000000 -0.000000 1.000000
1.116360 -0.572418 0.000000 -0.000000 -0.000000 1.000000
-1.061655 0.743379 0.000000 -0.000000 -0.000000 1.000000
-1.045967 0.732394 0.000000 -0.000000 -0.000000 1.000000
-1.023778 0.769173 0.000000 -0.000000 -0.000000 1.000000
-0.896167 0.791674 0.000000 -0.000000 -0.000000 1.000000
-0.848371 0.767236 0.000000 -0.000000 -0.000000 1.000000
-0.832362 0.802925 0.000000 -0.000000 -0.000000 1.000000
-0.704752 0.825427 0.000000 -0.000000 -0.000000 1.000000
-0.650775 0.802076 0.000000 -0.000000 -0.000000 1.000000
-0.640946 0.836677 0.000000 -0.000000 -0.000000 1.000000
-0.513336 0.859178 0.000000 -0.000000 -0.000000 1.000000
-0.453180 0.836918 0.000000 -0.000000 -0.000000 1.000000
-0.449531 0.870428 0.000000 -0.000000 -0.000000 1.000000
-0.321920 0.892929 0.000000 -0.000000 -0.000000 1.000000
-0.255584 0.871760 0.000000 -0.000000 -0.000000 1.000000
-0.258115 0.904180 0.000000 -0.000000 -0.000000 1.000000
-0.123854 0.894987 0.000000 -0.000000 -0.000000 1.000000
-0.066699 0.937932 0.000000 -0.000000 -0.000000 1.000000
-0.130505 0.926682 0.000000 -0.000000 -0.000000 1.000000
0.073742 0.929829 0.000000 -0.000000 -0.000000 1.000000
0.124717 0.971684 0.000000 -0.000000 -0.000000 1.000000
0.060911 0.960433 0.000000 -0.000000 -0.000000 1.000000
0.271338 0.964670 0.000000 -0.000000 -0.000000 1.000000
0.316132 1.005436 0.000000 -0.000000 -0.000000 1.000000
0.252327 0.994185 0.000000 -0.000000 -0.000000 1.000000
0.468933 0.999512 0.000000 -0.000000 -0.000000 1.000000
0.507548 1.039187 0.000000 -0.000000 -0.000000 1.000000
0.443743 1.027937 0.000000 -0.000000 -0.000000 1.000000
0.666529 1.034353 0.000000 -0.000000 -0.000000 1.000000
0.698964 1.072939 0.000000 -0.000000 -0.000000 1.000000
0.635159 1.061688 0.000000 -0.000000 -0.000000 1.000000
-1.050438 0.571353 -0.000000 -0.000000 -0.000000 1.000000
-1.011126 0.534798 -0.000000 -0.000000 -0.000000 1.000000
-1.022739 0.600664 -0.000000 -0.000000 -0.000000 1.000000
-1.016687 0.379937 -0.000000 -0.000000 -0.000000 1.000000
-0.976283 0.337203 -0.000000 -0.000000 -0.000000 1.000000
-0.987898 0.403068 -0.000000 -0.000000 -0.000000 1.000000
-0.982934 0.188522 -0.000000 -0.000000 -0.000000 1.000000
-0.941443 0.139607 -0.000000 -0.000000 -0.000000 1.000000
-0.953057 0.205472 -0.000000 -0.000000 -0.000000 1.000000
-0.949183 -0.002894 -0.000000 -0.000000 -0.000000 1.000000
-0.906601 -0.057989 -0.000000 -0.000000 -0.000000 1.000000
-0.918214 0.007877 -0.000000 -0.000000 -0.000000 1.000000
-0.904181 -0.258115 -0.000000 -0.000000 -0.000000 1.000000
-0.883374 -0.189719 -0.000000 -0.000000 -0.000000 1.000000
-0.915431 -0.194310 -0.000000 -0.000000 -0.000000 1.000000
-0.870428 -0.449531 -0.000000 -0.000000 -0.000000 1.000000
-0.848532 -0.387315 -0.000000 -0.000000 -0.000000 1.000000
-0.881679 -0.385725 -0.000000 -0.000000 -0.000000 1.000000
-0.836677 -0.640947 -0.000000 -0.000000 -0.000000 1.000000
-0.813690 -0.584910 -0.000000 -0.000000 -0.000000 1.000000
-0.847928 -0.577142 -0.000000 -0.000000 -0.000000 1.000000
-0.802925 -0.832362 -0.000000 -0.000000 -0.000000 1.000000
-0.778849 -0.782506 -0.000000 -0.000000 -0.000000 1.000000
-0.814175 -0.768557 -0.000000 -0.000000 -0.000000 1.000000
-0.769173 -1.023778 -0.000000 -0.000000 -0.000000 1.000000
-0.744007 -0.980101 -0.000000 -0.000000 -0.000000 1.000000
-0.780424 -0.959973 -0.000000 -0.000000 -0.000000 1.000000
-0.691789 -1.137408 -0.000000 -0.000000 -0.000000 1.000000
-0.665534 -1.099911 -0.000000 -0.000000 -0.000000 1.000000
-0.717584 -1.099531 -0.000000 -0.000000 -0.000000 1.000000
-0.512733 -1.105836 -0.000000 -0.000000 -0.000000 1.000000
-0.480298 -1.067249 -0.000000 -0.000000 -0.000000 1.000000
-0.542043 -1.078137 -0.000000 -0.000000 -0.000000 1.000000
-0.333677 -1.074263 -0.000000 -0.000000 -0.000000 1.000000
-0.295062 -1.034587 -0.000000 -0.000000 -0.000000 1.000000
-0.356808 -1.045475 -0.000000 -0.000000 -0.000000 1.000000
-0.154621 -1.042691 -0.000000 -0.000000 -0.000000 1.000000
-0.109827 -1.001925 -0.000000 -0.000000 -0.000000 1.000000
-0.171572 -1.012813 -0.000000 -0.000000 -0.000000 1.000000
0.024435 -1.011118 -0.000000 -0.000000 -0.000000 1.000000
0.075409 -0.969263 -0.000000 -0.000000 -0.000000 1.000000
0.013664 -0.980150 -0.000000 -0.000000 -0.000000 1.000000
0.198901 -0.947488 -0.000000 -0.000000 -0.000000 1.000000
0.263176 -0.969021 -0.000000 -0.000000 -0.000000 1.000000
0.260646 -0.936601 -0.000000 -0.000000 -0.000000 1.000000
0.384137 -0.914826 -0.000000 -0.000000 -0.000000 1.000000
0.442232 -0.937449 -0.000000 -0.000000 -0.000000 1.000000
0.445882 -0.903939 -0.000000 -0.000000 -0.000000 1.000000
0.569372 -0.882164 -0.000000 -0.000000 -0.000000 1.000000
0.621288 -0.905877 -0.000000 -0.000000 -0.000000 1.000000
0.631117 -0.871277 -0.000000 -0.000000 -0.000000 1.000000
0.754608 -0.849502 -0.000000 -0.000000 -0.000000 1.000000
0.800344 -0.874305 -0.000000 -0.000000 -0.000000 1.000000
0.816353 -0.838615 -0.000000 -0.000000 -0.000000 1.000000
0.939844 -0.816840 -0.000000 -0.000000 -0.000000 1.000000
0.979400 -0.842732 -0.000000 -0.000000 -0.000000 1.000000
1.001589 -0.805953 -0.000000 -0.000000 -0.000000 1.000000
0.980101 -0.744007 -0.000000 -0.000000 -0.000000 1.000000
1.023778 -0.769173 -0.000000 -0.000000 -0.000000 1.000000
1.045967 -0.732394 0.000000 -0.000000 -0.000000 1.000000
0.959973 -0.780424 -0.000000 -0.000000 -0.000000 1.000000
0.848371 -0.767236 -0.000000 -0.000000 -0.000000 1.000000
0.896167 -0.791674 -0.000000 -0.000000 -0.000000 1.000000
0.914236 -0.755621 -0.000000 -0.000000 -0.000000 1.000000
0.832362 -0.802925 -0.000000 -0.000000 -0.000000 1.000000
0.878098 -0.827727 -0.000000 -0.000000 -0.000000 1.000000
0.860029 -0.863781 -0.000000 -0.000000 -0.000000 1.000000
0.919715 -0.853256 -0.000000 -0.000000 -0.000000 1.000000
0.782506 -0.778849 -0.000000 -0.000000 -0.000000 1.000000
0.768557 -0.814175 -0.000000 -0.000000 -0.000000 1.000000
0.650775 -0.802076 -0.000000 -0.000000 -0.000000 1.000000
0.704752 -0.825427 -0.000000 -0.000000 -0.000000 1.000000
0.716641 -0.790463 -0.000000 -0.000000 -0.000000 1.000000
0.640947 -0.836677 -0.000000 -0.000000 -0.000000 1.000000
0.692863 -0.860389 -0.000000 -0.000000 -0.000000 1.000000
0.680973 -0.895353 -0.000000 -0.000000 -0.000000 1.000000
0.740659 -0.884829 -0.000000 -0.000000 -0.000000 1.000000
0.584910 -0.813690 -0.000000 -0.000000 -0.000000 1.000000
0.577142 -0.847928 -0.000000 -0.000000 -0.000000 1.000000
0.453180 -0.836918 -0.000000 -0.000000 -0.000000 1.000000
0.513336 -0.859178 -0.000000 -0.000000 -0.000000 1.000000
0.519045 -0.825305 -0.000000 -0.000000 -0.000000 1.000000
0.449531 -0.870428 -0.000000 -0.000000 -0.000000 1.000000
0.507627 -0.893052 -0.000000 -0.000000 -0.000000 1.000000
0.501918 -0.926925 -0.000000 -0.000000 -0.000000 1.000000
0.561602 -0.916401 -0.000000 -0.000000 -0.000000 1.000000
0.387315 -0.848532 -0.000000 -0.000000 -0.000000 1.000000
0.385725 -0.881679 -0.000000 -0.000000 -0.000000 1.000000
0.255584 -0.871759 -0.000000 -0.000000 -0.000000 1.000000
0.321920 -0.892929 -0.000000 -0.000000 -0.000000 1.000000
0.321449 -0.860145 -0.000000 -0.000000 -0.000000 1.000000
0.258115 -0.904181 -0.000000 -0.000000 -0.000000 1.000000
0.322391 -0.925713 -0.000000 -0.000000 -0.000000 1.000000
0.322862 -0.958497 -0.000000 -0.000000 -0.000000 1.000000
0.382547 -0.947973 -0.000000 -0.000000 -0.000000 1.000000
0.189719 -0.883374 -0.000000 -0.000000 -0.000000 1.000000
0.194310 -0.915431 -0.000000 -0.000000 -0.000000 1.000000
0.066700 -0.937932 -0.000000 -0.000000 -0.000000 1.000000
0.123854 -0.894987 -0.000000 -0.000000 -0.000000 1.000000
0.057989 -0.906601 -0.000000 -0.000000 -0.000000 1.000000
0.130505 -0.926682 -0.000000 -0.000000 -0.000000 1.000000
0.137154 -0.958376 -0.000000 -0.000000 -0.000000 1.000000
0.084120 -1.000594 -0.000000 -0.000000 -0.000000 1.000000
0.143805 -0.990069 -0.000000 -0.000000 -0.000000 1.000000
0.002894 -0.949183 -0.000000 -0.000000 -0.000000 1.000000
-0.007877 -0.918214 -0.000000 -0.000000 -0.000000 1.000000
-0.124717 -0.971684 -0.000000 -0.000000 -0.000000 1.000000
-0.073742 -0.929829 -0.000000 -0.000000 -0.000000 1.000000
-0.139607 -0.941443 -0.000000 -0.000000 -0.000000 1.000000
-0.060911 -0.960433 -0.000000 -0.000000 -0.000000 1.000000
-0.048081 -0.991038 -0.000000 -0.000000 -0.000000 1.000000
-0.094936 -1.032166 -0.000000 -0.000000 -0.000000 1.000000
-0.035251 -1.021642 -0.000000 -0.000000 -0.000000 1.000000
-0.188522 -0.982934 -0.000000 -0.000000 -0.000000 1.000000
-0.205472 -0.953057 -0.000000 -0.000000 -0.000000 1.000000
-0.316132 -1.005436 -0.000000 -0.000000 -0.000000 1.000000
-0.271337 -0.964670 -0.000000 -0.000000 -0.000000 1.000000
-0.337203 -0.976283 -0.000000 -0.000000 -0.000000 1.000000
-0.252327 -0.994185 -0.000000 -0.000000 -0.000000 1.000000
-0.233317 -1.023700 -0.000000 -0.000000 -0.000000 1.000000
-0.273991 -1.063739 -0.000000 -0.000000 -0.000000 1.000000
-0.214306 -1.053215 -0.000000 -0.000000 -0.000000 1.000000
-0.379937 -1.016687 -0.000000 -0.000000 -0.000000 1.000000
-0.403068 -0.987898 -0.000000 -0.000000 -0.000000 1.000000
-0.507548 -1.039187 -0.000000 -0.000000 -0.000000 1.000000
-0.468933 -0.999512 -0.000000 -0.000000 -0.000000 1.000000
-0.534798 -1.011126 -0.000000 -0.000000 -0.000000 1.000000
-0.443743 -1.027937 -0.000000 -0.000000 -0.000000 1.000000
-0.418553 -1.056362 -0.000000 -0.000000 -0.000000 1.000000
-0.453048 -1.095311 -0.000000 -0.000000 -0.000000 1.000000
-0.393362 -1.084787 -0.000000 -0.000000 -0.000000 1.000000
-0.571353 -1.050438 -0.000000 -0.000000 -0.000000 1.000000
-0.600664 -1.022739 -0.000000 -0.000000 -0.000000 1.000000
-0.698964 -1.072939 -0.000000 -0.000000 -0.000000 1.000000
-0.666529 -1.034353 -0.000000 -0.000000 -0.000000 1.000000
-0.732394 -1.045967 -0.000000 -0.000000 -0.000000 1.000000
-0.635159 -1.061688 -0.000000 -0.000000 -0.000000 1.000000
-0.603788 -1.089024 -0.000000 -0.000000 -0.000000 1.000000
-0.632104 -1.126884 -0.000000 -0.000000 -0.000000 1.000000
-0.572418 -1.116360 -0.000000 -0.000000 -0.000000 1.000000
-0.743379 -1.061655 -0.000000 -0.000000 -0.000000 1.000000
-0.832208 -1.039086 -0.000000 -0.000000 -0.000000 1.000000
-0.805953 -1.001589 -0.000000 -0.000000 -0.000000 1.000000
-0.842732 -0.979400 -0.000000 -0.000000 -0.000000 1.000000
-0.787793 -1.050370 -0.000000 -0.000000 -0.000000 1.000000
-0.821684 -1.098771 -0.000000 -0.000000 -0.000000 1.000000
-0.769633 -1.099151 -0.000000 -0.000000 -0.000000 1.000000
-0.811160 -1.158456 -0.000000 -0.000000 -0.000000 1.000000
-0.751474 -1.147932 -0.000000 -0.000000 -0.000000 1.000000
-0.791674 -0.896167 -0.000000 -0.000000 -0.000000 1.000000
-0.767236 -0.848371 -0.000000 -0.000000 -0.000000 1.000000
-0.755621 -0.914236 -0.000000 -0.000000 -0.000000 1.000000
-0.863781 -0.860029 -0.000000 -0.000000 -0.000000 1.000000
-0.838615 -0.816353 -0.000000 -0.000000 -0.000000 1.000000
-0.874305 -0.800344 -0.000000 -0.000000 -0.000000 1.000000
-0.827727 -0.878098 -0.000000 -0.000000 -0.000000 1.000000
-0.853256 -0.919715 -0.000000 -0.000000 -0.000000 1.000000
-0.816840 -0.939844 -0.000000 -0.000000 -0.000000 1.000000
-0.825427 -0.704752 -0.000000 -0.000000 -0.000000 1.000000
-0.802076 -0.650775 -0.000000 -0.000000 -0.000000 1.000000
-0.790463 -0.716641 -0.000000 -0.000000 -0.000000 1.000000
-0.895353 -0.680973 -0.000000 -0.000000 -0.000000 1.000000
-0.871277 -0.631117 -0.000000 -0.000000 -0.000000 1.000000
-0.905877 -0.621288 -0.000000 -0.000000 -0.000000 1.000000
-0.860389 -0.692863 -0.000000 -0.000000 -0.000000 1.000000
-0.884829 -0.740659 -0.000000 -0.000000 -0.000000 1.000000
-0.849502 -0.754608 -0.000000 -0.000000 -0.000000 1.000000
-0.859178 -0.513336 -0.000000 -0.000000 -0.000000 1.000000
-0.836918 -0.453180 -0.000000 -0.000000 -0.000000 1.000000
-0.825305 -0.519045 -0.000000 -0.000000 -0.000000 1.000000
-0.926925 -0.501918 -0.000000 -0.000000 -0.000000 1.000000
-0.903939 -0.445882 -0.000000 -0.000000 -0.000000 1.000000
-0.937449 -0.442232 -0.000000 -0.000000 -0.000000 1.000000
-0.893052 -0.507627 -0.000000 -0.000000 -0.000000 1.000000
-0.916401 -0.561602 -0.000000 -0.000000 -0.000000 1.000000
-0.882164 -0.569372 -0.000000 -0.000000 -0.000000 1.000000
-0.892929 -0.321920 -0.000000 -0.000000 -0.000000 1.000000
-0.871759 -0.255584 -0.000000 -0.000000 -0.000000 1.000000
-0.860145 -0.321449 -0.000000 -0.000000 -0.000000 1.000000
-0.958497 -0.322862 -0.000000 -0.000000 -0.000000 1.000000
-0.936601 -0.260646 -0.000000 -0.000000 -0.000000 1.000000
-0.969021 -0.263176 -0.000000 -0.000000 -0.000000 1.000000
-0.925713 -0.322391 -0.000000 -0.000000 -0.000000 1.000000
-0.947973 -0.382547 -0.000000 -0.000000 -0.000000 1.000000
-0.914826 -0.384137 -0.000000 -0.000000 -0.000000 1.000000
-0.937932 -0.066700 -0.000000 -0.000000 -0.000000 1.000000
-0.894987 -0.123854 -0.000000 -0.000000 -0.000000 1.000000
-0.926682 -0.130505 -0.000000 -0.000000 -0.000000 1.000000
-1.000594 -0.084120 -0.000000 -0.000000 -0.000000 1.000000
-0.958376 -0.137154 -0.000000 -0.000000 -0.000000 1.000000
-0.969263 -0.075409 -0.000000 -0.000000 -0.000000 1.000000
-0.990069 -0.143805 -0.000000 -0.000000 -0.000000 1.000000
-0.947488 -0.198901 -0.000000 -0.000000 -0.000000 1.000000
-0.979545 -0.203491 -0.000000 -0.000000 -0.000000 1.000000
-0.971684 0.124717 -0.000000 -0.000000 -0.000000 1.000000
-0.929829 0.073742 -0.000000 -0.000000 -0.000000 1.000000
-0.960433 0.060911 -0.000000 -0.000000 -0.000000 1.000000
-1.032166 0.094936 -0.000000 -0.000000 -0.000000 1.000000
-0.991038 0.048081 -0.000000 -0.000000 -0.000000 1.000000
-1.001925 0.109827 -0.000000 -0.000000 -0.000000 1.000000
-1.021642 0.035251 -0.000000 -0.000000 -0.000000 1.000000
-0.980150 -0.013664 -0.000000 -0.000000 -0.000000 1.000000
-1.011118 -0.024435 -0.000000 -0.000000 -0.000000 1.000000
-1.005436 0.316132 -0.000000 -0.000000 -0.000000 1.000000
-0.964670 0.271338 -0.000000 -0.000000 -0.000000 1.000000
-0.994185 0.252327 -0.000000 -0.000000 -0.000000 1.000000
-1.063739 0.273991 -0.000000 -0.000000 -0.000000 1.000000
-1.023700 0.233317 -0.000000 -0.000000 -0.000000 1.000000
-1.034587 0.295062 -0.000000 -0.000000 -0.000000 1.000000
-1.053215 0.214306 -0.000000 -0.000000 -0.000000 1.000000
-1.012813 0.171572 -0.000000 -0.000000 -0.000000 1.000000
-1.042691 0.154621 -0.000000 -0.000000 -0.000000 1.000000
-1.039187 0.507548 -0.000000 -0.000000 -0.000000 1.000000
-0.999512 0.468933 -0.000000 -0.000000 -0.000000 1.000000
-1.027937 0.443743 -0.000000 -0.000000 -0.000000 1.000000
-1.095311 0.453048 -0.000000 -0.000000 -0.000000 1.000000
-1.056362 0.418553 -0.000000 -0.000000 -0.000000 1.000000
-1.067249 0.480298 -0.000000 -0.000000 -0.000000 1.000000
-1.084787 0.393362 -0.000000 -0.000000 -0.000000 1.000000
-1.045475 0.356808 -0.000000 -0.000000 -0.000000 1.000000
-1.074263 0.333677 -0.000000 -0.000000 -0.000000 1.000000
-1.072939 0.698964 -0.000000 -0.000000 -0.000000 1.000000
-1.034353 0.666529 -0.000000 -0.000000 -0.000000 1.000000
-1.061688 0.635159 -0.000000 -0.000000 -0.000000 1.000000
-1.126884 0.632104 -0.000000 -0.000000 -0.000000 1.000000
-1.089024 0.603788 -0.000000 -0.000000 -0.000000 1.000000
-1.099911 0.665534 -0.000000 -0.000000 -0.000000 1.000000
-1.116360 0.572418 -0.000000 -0.000000 -0.000000 1.000000
-1.078137 0.542043 -0.000000 -0.000000 -0.000000 1.000000
-1.105836 0.512733 -0.000000 -0.000000 -0.000000 1.000000
0.603788 1.089024 0.000000 -0.000000 -0.000000 1.000000
0.632104 1.126884 0.000000 -0.000000 -0.000000 1.000000
0.572418 1.116360 0.000000 -0.000000 -0.000000 1.000000
0.665534 1.099911 0.000000 -0.000000 -0.000000 1.000000
0.480298 1.067249 0.000000 -0.000000 -0.000000 1.000000
0.512733 1.105836 0.000000 -0.000000 -0.000000 1.000000
0.453048 1.095311 0.000000 -0.000000 -0.000000 1.000000
0.542043 1.078137 0.000000 -0.000000 -0.000000 1.000000
0.571353 1.050438 0.000000 -0.000000 -0.000000 1.000000
0.534798 1.011126 0.000000 -0.000000 -0.000000 1.000000
0.600664 1.022739 0.000000 -0.000000 -0.000000 1.000000
0.418553 1.056362 0.000000 -0.000000 -0.000000 1.000000
0.393362 1.084787 0.000000 -0.000000 -0.000000 1.000000
0.295062 1.034587 0.000000 -0.000000 -0.000000 1.000000
0.333677 1.074263 0.000000 -0.000000 -0.000000 1.000000
0.273991 1.063739 0.000000 -0.000000 -0.000000 1.000000
0.356808 1.045475 0.000000 -0.000000 -0.000000 1.000000
0.379937 1.016687 0.000000 -0.000000 -0.000000 1.000000
0.337203 0.976283 0.000000 -0.000000 -0.000000 1.000000
0.403068 0.987898 0.000000 -0.000000 -0.000000 1.000000
0.233317 1.023700 0.000000 -0.000000 -0.000000 1.000000
0.214306 1.053215 0.000000 -0.000000 -0.000000 1.000000
0.109827 1.001925 0.000000 -0.000000 -0.000000 1.000000
0.154621 1.042691 0.000000 -0.000000 -0.000000 1.000000
0.094936 1.032166 0.000000 -0.000000 -0.000000 1.000000
0.171572 1.012813 0.000000 -0.000000 -0.000000 1.000000
0.188522 0.982934 0.000000 -0.000000 -0.000000 1.000000
0.139607 0.941443 0.000000 -0.000000 -0.000000 1.000000
0.205472 0.953057 0.000000 -0.000000 -0.000000 1.000000
0.048081 0.991038 0.000000 -0.000000 -0.000000 1.000000
0.035251 1.021642 0.000000 -0.000000 -0.000000 1.000000
-0.075409 0.969263 0.000000 -0.000000 -0.000000 1.000000
-0.024435 1.011118 0.000000 -0.000000 -0.000000 1.000000
-0.084120 1.000594 0.000000 -0.000000 -0.000000 1.000000
-0.013664 0.980150 0.000000 -0.000000 -0.000000 1.000000
-0.002894 0.949183 0.000000 -0.000000 -0.000000 1.000000
-0.057988 0.906601 0.000000 -0.000000 -0.000000 1.000000
0.007877 0.918214 0.000000 -0.000000 -0.000000 1.000000
-0.137155 0.958375 0.000000 -0.000000 -0.000000 1.000000
-0.143805 0.990069 0.000000 -0.000000 -0.000000 1.000000
-0.263176 0.969021 0.000000 -0.000000 -0.000000 1.000000
-0.198900 0.947488 0.000000 -0.000000 -0.000000 1.000000
-0.203491 0.979545 0.000000 -0.000000 -0.000000 1.000000
-0.260646 0.936601 0.000000 -0.000000 -0.000000 1.000000
-0.194310 0.915431 0.000000 -0.000000 -0.000000 1.000000
-0.189719 0.883374 0.000000 -0.000000 -0.000000 1.000000
-0.322862 0.958497 0.000000 -0.000000 -0.000000 1.000000
-0.322391 0.925713 0.000000 -0.000000 -0.000000 1.000000
-0.442232 0.937449 0.000000 -0.000000 -0.000000 1.000000
-0.384137 0.914826 0.000000 -0.000000 -0.000000 1.000000
-0.382547 0.947973 0.000000 -0.000000 -0.000000 1.000000
-0.445882 0.903939 0.000000 -0.000000 -0.000000 1.000000
-0.385725 0.881679 0.000000 -0.000000 -0.000000 1.000000
-0.387315 0.848532 0.000000 -0.000000 -0.000000 1.000000
-0.321449 0.860145 0.000000 -0.000000 -0.000000 1.000000
-0.501918 0.926925 0.000000 -0.000000 -0.000000 1.000000
-0.507627 0.893052 0.000000 -0.000000 -0.000000 1.000000
-0.621288 0.905877 0.000000 -0.000000 -0.000000 1.000000
-0.569372 0.882164 0.000000 -0.000000 -0.000000 1.000000
-0.561602 0.916401 0.000000 -0.000000 -0.000000 1.000000
-0.631117 0.871277 0.000000 -0.000000 -0.000000 1.000000
-0.577141 0.847927 0.000000 -0.000000 -0.000000 1.000000
-0.584910 0.813691 0.000000 -0.000000 -0.000000 1.000000
-0.519045 0.825305 0.000000 -0.000000 -0.000000 1.000000
-0.680973 0.895353 0.000000 -0.000000 -0.000000 1.000000
-0.692863 0.860389 0.000000 -0.000000 -0.000000 1.000000
-0.800344 0.874305 0.000000 -0.000000 -0.000000 1.000000
-0.754608 0.849502 0.000000 -0.000000 -0.000000 1.000000
-0.740659 0.884829 0.000000 -0.000000 -0.000000 1.000000
-0.816353 0.838615 0.000000 -0.000000 -0.000000 1.000000
-0.768557 0.814175 0.000000 -0.000000 -0.000000 1.000000
-0.782506 0.778849 0.000000 -0.000000 -0.000000 1.000000
-0.716641 0.790463 0.000000 -0.000000 -0.000000 1.000000
-0.860029 0.863781 0.000000 -0.000000 -0.000000 1.000000
-0.878098 0.827727 0.000000 -0.000000 -0.000000 1.000000
-0.979400 0.842732 0.000000 -0.000000 -0.000000 1.000000
-0.939844 0.816840 0.000000 -0.000000 -0.000000 1.000000
-0.919715 0.853256 0.000000 -0.000000 -0.000000 1.000000
-1.001589 0.805953 0.000000 -0.000000 -0.000000 1.000000
-0.959973 0.780424 0.000000 -0.000000 -0.000000 1.000000
-0.980101 0.744007 0.000000 -0.000000 -0.000000 1.000000
-0.914236 0.755621 0.000000 -0.000000 -0.000000 1.000000
-1.039086 0.832208 0.000000 -0.000000 -0.000000 1.000000
-1.050370 0.787793 0.000000 -0.000000 -0.000000 1.000000
-1.158456 0.811160 0.000000 -0.000000 -0.000000 1.000000
-1.099151 0.769633 0.000000 -0.000000 -0.000000 1.000000
-1.098771 0.821684 0.000000 -0.000000 -0.000000 1.000000
-1.147932 0.751474 -0.000000 -0.000000 -0.000000 1.000000
-1.099531 0.717584 -0.000000 -0.000000 -0.000000 1.000000
-1.137408 0.691789 -0.000000 -0.000000 -0.000000 1.000000
1.067249 -0.480298 0.000000 -0.000000 -0.000000 1.000000
1.105836 -0.512733 0.000000 -0.000000 -0.000000 1.000000
1.078137 -0.542043 0.000000 -0.000000 -0.000000 1.000000
1.011126 -0.534798 0.000000 -0.000000 -0.000000 1.000000
1.050438 -0.571353 0.000000 -0.000000 -0.000000 1.000000
1.039187 -0.507548 0.000000 -0.000000 -0.000000 1.000000
1.022739 -0.600664 0.000000 -0.000000 -0.000000 1.000000
1.061688 -0.635159 0.000000 -0.000000 -0.000000 1.000000
1.034353 -0.666529 0.000000 -0.000000 -0.000000 1.000000
1.072939 -0.698964 0.000000 -0.000000 -0.000000 1.000000
1.099911 -0.665534 0.000000 -0.000000 -0.000000 1.000000
1.034587 -0.295062 0.000000 -0.000000 -0.000000 1.000000
1.074263 -0.333677 0.000000 -0.000000 -0.000000 1.000000
1.045475 -0.356808 0.000000 -0.000000 -0.000000 1.000000
0.976283 -0.337203 0.000000 -0.000000 -0.000000 1.000000
1.016687 -0.379937 0.000000 -0.000000 -0.000000 1.000000
1.005435 -0.316132 0.000000 -0.000000 -0.000000 1.000000
0.987898 -0.403068 0.000000 -0.000000 -0.000000 1.000000
1.027937 -0.443743 0.000000 -0.000000 -0.000000 1.000000
0.999512 -0.468933 0.000000 -0.000000 -0.000000 1.000000
1.001925 -0.109827 0.000000 -0.000000 -0.000000 1.000000
1.042691 -0.154621 0.000000 -0.000000 -0.000000 1.000000
1.012813 -0.171572 0.000000 -0.000000 -0.000000 1.000000
0.941443 -0.139607 0.000000 -0.000000 -0.000000 1.000000
0.982934 -0.188522 0.000000 -0.000000 -0.000000 1.000000
0.971684 -0.124717 0.000000 -0.000000 -0.000000 1.000000
0.953057 -0.205472 0.000000 -0.000000 -0.000000 1.000000
0.994185 -0.252327 0.000000 -0.000000 -0.000000 1.000000
0.964670 -0.271337 0.000000 -0.000000 -0.000000 1.000000
0.969262 0.075410 0.000000 -0.000000 -0.000000 1.000000
1.011118 0.024435 0.000000 -0.000000 -0.000000 1.000000
0.980150 0.013664 0.000000 -0.000000 -0.000000 1.000000
0.906601 0.057989 0.000000 -0.000000 -0.000000 1.000000
0.949183 0.002894 0.000000 -0.000000 -0.000000 1.000000
0.937932 0.066699 0.000000 -0.000000 -0.000000 1.000000
0.918214 -0.007877 0.000000 -0.000000 -0.000000 1.000000
0.960433 -0.060911 0.000000 -0.000000 -0.000000 1.000000
0.929829 -0.073742 0.000000 -0.000000 -0.000000 1.000000
0.947488 0.198900 0.000000 -0.000000 -0.000000 1.000000
0.969021 0.263176 0.000000 -0.000000 -0.000000 1.000000
0.979545 0.203491 0.000000 -0.000000 -0.000000 1.000000
0.883374 0.189719 0.000000 -0.000000 -0.000000 1.000000
0.904180 0.258115 0.000000 -0.000000 -0.000000 1.000000
0.871759 0.255584 0.000000 -0.000000 -0.000000 1.000000
0.915431 0.194310 0.000000 -0.000000 -0.000000 1.000000
0.894987 0.123854 0.000000 -0.000000 -0.000000 1.000000
0.926682 0.130505 0.000000 -0.000000 -0.000000 1.000000
0.914826 0.384137 0.000000 -0.000000 -0.000000 1.000000
0.937449 0.442232 0.000000 -0.000000 -0.000000 1.000000
0.947973 0.382547 0.000000 -0.000000 -0.000000 1.000000
0.848532 0.387315 0.000000 -0.000000 -0.000000 1.000000
0.870428 0.449531 0.000000 -0.000000 -0.000000 1.000000
0.836918 0.453180 0.000000 -0.000000 -0.000000 1.000000
0.881679 0.385725 0.000000 -0.000000 -0.000000 1.000000
0.860145 0.321449 0.000000 -0.000000 -0.000000 1.000000
0.892929 0.321920 0.000000 -0.000000 -0.000000 1.000000
0.882164 0.569372 0.000000 -0.000000 -0.000000 1.000000
0.905877 0.621288 0.000000 -0.000000 -0.000000 1.000000
0.916401 0.561602 0.000000 -0.000000 -0.000000 1.000000
0.813690 0.584910 0.000000 -0.000000 -0.000000 1.000000
0.836677 0.640946 0.000000 -0.000000 -0.000000 1.000000
0.802076 0.650775 0.000000 -0.000000 -0.000000 1.000000
0.847927 0.577141 0.000000 -0.000000 -0.000000 1.000000
0.825305 0.519045 0.000000 -0.000000 -0.000000 1.000000
0.859178 0.513336 0.000000 -0.000000 -0.000000 1.000000
0.849502 0.754608 0.000000 -0.000000 -0.000000 1.000000
0.874305 0.800344 0.000000 -0.000000 -0.000000 1.000000
0.884829 0.740659 0.000000 -0.000000 -0.000000 1.000000
0.778849 0.782506 0.000000 -0.000000 -0.000000 1.000000
0.802925 0.832362 0.000000 -0.000000 -0.000000 1.000000
0.767236 0.848371 0.000000 -0.000000 -0.000000 1.000000
0.814175 0.768557 0.000000 -0.000000 -0.000000 1.000000
0.790463 0.716641 0.000000 -0.000000 -0.000000 1.000000
0.825427 0.704752 0.000000 -0.000000 -0.000000 1.000000
0.816840 0.939844 0.000000 -0.000000 -0.000000 1.000000
0.842732 0.979400 0.000000 -0.000000 -0.000000 1.000000
0.853256 0.919715 0.000000 -0.000000 -0.000000 1.000000
0.744007 0.980101 0.000000 -0.000000 -0.000000 1.000000
0.769173 1.023778 0.000000 -0.000000 -0.000000 1.000000
0.732394 1.045967 0.000000 -0.000000 -0.000000 1.000000
0.780424 0.959973 0.000000 -0.000000 -0.000000 1.000000
0.755621 0.914236 0.000000 -0.000000 -0.000000 1.000000
0.791674 0.896167 0.000000 -0.000000 -0.000000 1.000000
0.769633 1.099151 0.000000 -0.000000 -0.000000 1.000000
0.811160 1.158456 0.000000 -0.000000 -0.000000 1.000000
0.751474 1.147932 0.000000 -0.000000 -0.000000 1.000000
0.821684 1.098771 0.000000 -0.000000 -0.000000 1.000000
0.691789 1.137408 0.000000 -0.000000 -0.000000 1.000000
0.717584 1.099531 0.000000 -0.000000 -0.000000 1.000000
0.743379 1.061655 0.000000 -0.000000 -0.000000 1.000000
1.137408 -0.691789 0.000000 -0.000000 -0.000000 1.000000
1.099531 -0.717584 0.000000 -0.000000 -0.000000 1.000000
1.061655 -0.743379 0.000000 -0.000000 -0.000000 1.000000
1.050370 -0.787793 -0.000000 -0.000000 -0.000000 1.000000
1.039086 -0.832208 -0.000000 -0.000000 -0.000000 1.000000
1.098771 -0.821684 -0.000000 -0.000000 -0.000000 1.000000
0.203491 -0.979545 -0.000000 -0.000000 -0.000000 1.000000
3 0 1 2
3 3 4 5
3 6 7 8
3 9 10 11
3 12 13 14
3 15 16 17
3 18 19 20
3 21 22 23
3 24 25 26
3 27 28 29
3 30 31 32
3 33 34 35
3 36 37 38
3 39 40 41
3 42 43 44
3 45 46 47
3 48 49 50
3 51 52 53
3 54 55 56
3 57 58 59
3 60 61 62
3 63 64 65
3 66 67 68
3 69 70 71
3 72 73 74
3 75 76 77
3 78 79 80
3 81 82 83
3 84 85 86
3 87 88 89
3 90 91 92
3 93 94 95
3 96 97 98
3 99 100 101
3 102 103 104
3 105 106 107
3 108 109 110
3 111 112 113
3 114 115 116
3 117 118 119
3 120 121 122
3 123 119 121
3 124 125 126
3 126 123 120
3 127 128 125
3 125 117 123
3 116 129 128
3 128 130 117
3 131 127 124
3 132 116 127
3 133 134 135
3 135 132 131
3 136 137 134
3 134 114 132
3 113 138 137
3 137 139 114
3 140 136 133
3 141 113 136
3 142 143 144
3 144 141 140
3 145 146 143
3 143 111 141
3 110 147 146
3 146 148 111
3 149 145 142
3 150 110 145
3 151 152 153
3 153 150 149
3 154 155 152
3 152 108 150
3 107 156 155
3 155 157 108
3 158 154 151
3 159 107 154
3 160 161 162
3 163 158 161
3 103 163 160
3 164 159 163
3 165 164 103
3 166 105 164
3 167 162 168
3 104 160 167
3 169 170 171
3 172 168 170
3 100 172 169
3 173 167 172
3 174 173 100
3 175 104 173
3 176 171 177
3 101 169 176
3 178 179 180
3 181 177 179
3 97 181 178
3 182 176 181
3 183 182 97
3 184 101 182
3 185 180 186
3 98 178 185
3 187 188 189
3 190 186 188
3 94 190 187
3 191 185 190
3 192 191 94
3 193 98 191
3 194 189 195
3 95 187 194
3 196 197 198
3 199 195 197
3 91 199 196
3 200 194 199
3 201 200 91
3 202 95 200
3 203 198 87
3 92 196 203
3 204 205 206
3 207 87 205
3 208 207 204
3 209 203 207
3 210 209 208
3 211 92 209
3 212 213 84
3 89 214 212
3 215 216 217
3 218 84 216
3 219 218 215
3 220 212 218
3 206 220 219
3 205 89 220
3 221 222 81
3 86 223 221
3 224 225 226
3 227 81 225
3 228 227 224
3 229 221 227
3 217 229 228
3 216 86 229
3 230 231 78
3 83 232 230
3 233 234 235
3 236 78 234
3 237 236 233
3 238 230 236
3 226 238 237
3 225 83 238
3 239 240 75
3 80 241 239
3 242 243 244
3 245 75 243
3 246 245 242
3 247 239 245
3 235 247 246
3 234 80 247
3 248 249 73
3 77 249 250
3 251 252 253
3 253 250 248
3 254 255 252
3 255 250 252
3 244 255 256
3 243 77 255
3 257 258 70
3 259 74 258
3 260 261 262
3 262 259 257
3 263 264 261
3 261 72 259
3 265 253 264
3 264 248 72
3 266 267 67
3 268 71 267
3 269 270 271
3 271 268 266
3 272 273 270
3 270 69 268
3 274 262 273
3 273 257 69
3 275 276 64
3 277 68 276
3 278 279 280
3 280 277 275
3 281 282 279
3 279 66 277
3 283 271 282
3 282 266 66
3 284 285 34
3 286 65 285
3 287 288 289
3 289 286 284
3 290 291 288
3 288 63 286
3 292 280 291
3 291 275 63
3 293 294 295
3 62 296 293
3 297 298 299
3 300 295 298
3 58 300 297
3 301 293 300
3 302 301 58
3 303 62 301
3 304 299 305
3 59 297 304
3 306 307 308
3 309 305 307
3 55 309 306
3 310 304 309
3 311 310 55
3 312 59 310
3 313 308 314
3 56 306 313
3 315 316 317
3 318 314 316
3 52 318 315
3 319 313 318
3 320 319 52
3 321 56 319
3 322 317 323
3 53 315 322
3 324 325 326
3 327 323 325
3 49 327 324
3 328 322 327
3 329 328 49
3 330 53 328
3 331 326 332
3 50 324 331
3 333 334 335
3 334 332 335
3 336 337 334
3 337 331 334
3 47 338 337
3 338 50 337
3 339 336 333
3 340 47 336
3 341 342 343
3 343 340 339
3 344 345 342
3 342 45 340
3 44 346 345
3 345 347 45
3 348 344 341
3 349 44 344
3 350 351 352
3 352 349 348
3 353 354 351
3 351 42 349
3 41 355 354
3 354 356 42
3 357 353 350
3 358 41 353
3 359 360 361
3 361 358 357
3 362 363 360
3 360 39 358
3 38 364 363
3 363 365 39
3 366 362 359
3 367 38 362
3 368 369 370
3 370 367 366
3 371 372 369
3 369 36 367
3 35 373 372
3 372 374 36
3 375 371 368
3 376 35 371
3 377 378 379
3 379 376 375
3 380 381 378
3 378 33 376
3 382 289 381
3 381 284 33
3 383 384 28
3 385 32 384
3 386 387 388
3 388 385 383
3 389 390 387
3 387 30 385
3 391 392 390
3 390 393 30
3 394 395 25
3 396 29 395
3 397 398 399
3 399 396 394
3 400 401 398
3 398 27 396
3 402 388 401
3 401 383 27
3 403 404 22
3 405 26 404
3 406 407 408
3 408 405 403
3 409 410 407
3 407 24 405
3 411 399 410
3 410 394 24
3 412 413 19
3 414 23 413
3 415 416 417
3 417 414 412
3 418 419 416
3 416 21 414
3 420 408 419
3 419 403 21
3 421 422 15
3 18 423 421
3 424 425 426
3 427 15 425
3 428 427 424
3 427 18 421
3 428 417 429
3 429 412 18
3 430 431 12
3 17 432 430
3 433 434 435
3 436 12 434
3 437 436 433
3 438 430 436
3 426 438 437
3 425 17 438
3 439 440 9
3 14 441 439
3 442 443 444
3 445 9 443
3 446 445 442
3 447 439 445
3 435 447 446
3 434 14 447
3 448 449 6
3 11 450 448
3 451 452 453
3 454 6 452
3 455 454 451
3 456 448 454
3 444 456 455
3 443 11 456
3 457 458 3
3 8 459 457
3 460 461 462
3 463 3 461
3 464 463 460
3 465 457 463
3 453 465 464
3 452 8 465
3 466 467 468
3 5 469 466
3 296 470 294
3 471 468 470
3 61 471 296
3 472 466 471
3 462 472 61
3 461 5 472
3 393 473 31
3 474 2 473
3 122 475 392
3 392 474 393
3 121 476 475
3 475 0 474
3 119 477 476
3 478 0 476
3 0 478 1
3 3 458 4
3 6 449 7
3 9 440 10
3 12 431 13
3 15 422 16
3 18 412 19
3 21 403 22
3 24 394 25
3 27 383 28
3 30 393 31
3 33 284 34
3 36 374 37
3 39 365 40
3 42 356 43
3 45 347 46
3 48 329 49
3 51 320 52
3 54 311 55
3 57 302 58
3 60 462 61
3 63 275 64
3 66 266 67
3 69 257 70
3 72 248 73
3 75 240 76
3 78 231 79
3 81 222 82
3 84 213 85
3 87 198 88
3 90 201 91
3 93 192 94
3 96 183 97
3 99 174 100
3 102 165 103
3 105 479 106
3 108 157 109
3 111 148 112
3 114 139 115
3 117 130 118
3 120 123 121
3 123 117 119
3 124 127 125
3 126 125 123
3 127 116 128
3 125 128 117
3 116 115 129
3 128 129 130
3 131 132 127
3 132 114 116
3 133 136 134
3 135 134 132
3 136 113 137
3 134 137 114
3 113 112 138
3 137 138 139
3 140 141 136
3 141 111 113
3 142 145 143
3 144 143 141
3 145 110 146
3 143 146 111
3 110 109 147
3 146 147 148
3 149 150 145
3 150 108 110
3 151 154 152
3 153 152 150
3 154 107 155
3 152 155 108
3 107 106 156
3 155 156 157
3 158 159 154
3 159 105 107
3 160 163 161
3 163 159 158
3 103 164 163
3 164 105 159
3 165 166 164
3 166 479 105
3 167 160 162
3 104 103 160
3 169 172 170
3 172 167 168
3 100 173 172
3 173 104 167
3 174 175 173
3 175 102 104
3 176 169 171
3 101 100 169
3 178 181 179
3 181 176 177
3 97 182 181
3 182 101 176
3 183 184 182
3 184 99 101
3 185 178 180
3 98 97 178
3 187 190 188
3 190 185 186
3 94 191 190
3 191 98 185
3 192 193 191
3 193 96 98
3 194 187 189
3 95 94 187
3 196 199 197
3 199 194 195
3 91 200 199
3 200 95 194
3 201 202 200
3 202 93 95
3 203 196 198
3 92 91 196
3 204 207 205
3 207 203 87
3 208 209 207
3 209 92 203
3 210 211 209
3 211 90 92
3 212 214 213
3 89 88 214
3 215 218 216
3 218 212 84
3 219 220 218
3 220 89 212
3 206 205 220
3 205 87 89
3 221 223 222
3 86 85 223
3 224 227 225
3 227 221 81
3 228 229 227
3 229 86 221
3 217 216 229
3 216 84 86
3 230 232 231
3 83 82 232
3 233 236 234
3 236 230 78
3 237 238 236
3 238 83 230
3 226 225 238
3 225 81 83
3 239 241 240
3 80 79 241
3 242 245 243
3 245 239 75
3 246 247 245
3 247 80 239
3 235 234 247
3 234 78 80
3 248 250 249
3 77 76 249
3 251 254 252
3 253 252 250
3 254 256 255
3 255 77 250
3 244 243 255
3 243 75 77
3 257 259 258
3 259 72 74
3 260 263 261
3 262 261 259
3 263 265 264
3 261 264 72
3 265 251 253
3 264 253 248
3 266 268 267
3 268 69 71
3 269 272 270
3 271 270 268
3 272 274 273
3 270 273 69
3 274 260 262
3 273 262 257
3 275 277 276
3 277 66 68
3 278 281 279
3 280 279 277
3 281 283 282
3 279 282 66
3 283 269 271
3 282 271 266
3 284 286 285
3 286 63 65
3 287 290 288
3 289 288 286
3 290 292 291
3 288 291 63
3 292 278 280
3 291 280 275
3 293 296 294
3 62 61 296
3 297 300 298
3 300 293 295
3 58 301 300
3 301 62 293
3 302 303 301
3 303 60 62
3 304 297 299
3 59 58 297
3 306 309 307
3 309 304 305
3 55 310 309
3 310 59 304
3 311 312 310
3 312 57 59
3 313 306 308
3 56 55 306
3 315 318 316
3 318 313 314
3 52 319 318
3 319 56 313
3 320 321 319
3 321 54 56
3 322 315 317
3 53 52 315
3 324 327 325
3 327 322 323
3 49 328 327
3 328 53 322
3 329 330 328
3 330 51 53
3 331 324 326
3 50 49 324
3 333 336 334
3 334 331 332
3 336 47 337
3 337 50 331
3 47 46 338
3 338 48 50
3 339 340 336
3 340 45 47
3 341 344 342
3 343 342 340
3 344 44 345
3 342 345 45
3 44 43 346
3 345 346 347
3 348 349 344
3 349 42 44
3 350 353 351
3 352 351 349
3 353 41 354
3 351 354 42
3 41 40 355
3 354 355 356
3 357 358 353
3 358 39 41
3 359 362 360
3 361 360 358
3 362 38 363
3 360 363 39
3 38 37 364
3 363 364 365
3 366 367 362
3 367 36 38
3 368 371 369
3 370 369 367
3 371 35 372
3 369 372 36
3 35 34 373
3 372 373 374
3 375 376 371
3 376 33 35
3 377 380 378
3 379 378 376
3 380 382 381
3 378 381 33
3 382 287 289
3 381 289 284
3 383 385 384
3 385 30 32
3 386 389 387
3 388 387 385
3 389 391 390
3 387 390 30
3 391 122 392
3 390 392 393
3 394 396 395
3 396 27 29
3 397 400 398
3 399 398 396
3 400 402 401
3 398 401 27
3 402 386 388
3 401 388 383
3 403 405 404
3 405 24 26
3 406 409 407
3 408 407 405
3 409 411 410
3 407 410 24
3 411 397 399
3 410 399 394
3 412 414 413
3 414 21 23
3 415 418 416
3 417 416 414
3 418 420 419
3 416 419 21
3 420 406 408
3 419 408 403
3 421 423 422
3 18 20 423
3 424 427 425
3 427 421 15
3 428 429 427
3 427 429 18
3 428 415 417
3 429 417 412
3 430 432 431
3 17 16 432
3 433 436 434
3 436 430 12
3 437 438 436
3 438 17 430
3 426 425 438
3 425 15 17
3 439 441 440
3 14 13 441
3 442 445 443
3 445 439 9
3 446 447 445
3 447 14 439
3 435 434 447
3 434 12 14
3 448 450 449
3 11 10 450
3 451 454 452
3 454 448 6
3 455 456 454
3 456 11 448
3 444 443 456
3 443 9 11
3 457 459 458
3 8 7 459
3 460 463 461
3 463 457 3
3 464 465 463
3 465 8 457
3 453 452 465
3 452 6 8
3 466 469 467
3 5 4 469
3 296 471 470
3 471 466 468
3 61 472 471
3 472 5 466
3 462 461 472
3 461 3 5
3 393 474 473
3 474 0 2
3 122 121 475
3 392 475 474
3 121 119 476
3 476 0 475
3 119 118 477
3 476 477 478
